<svg id="eEwIPCn7t2N1" xmlns="http://www.w3.org/2000/svg" xmlns:xlink="http://www.w3.org/1999/xlink" viewBox="0 0 500 500" shape-rendering="geometricPrecision" text-rendering="geometricPrecision"><defs><linearGradient id="eEwIPCn7t2N4-stroke" x1="16.887662" y1="-9.43179" x2="16.887662" y2="19.34521" spreadMethod="pad" gradientUnits="userSpaceOnUse" gradientTransform="translate(0 0)"><stop id="eEwIPCn7t2N4-stroke-0" offset="0%" stop-color="#bada55"/><stop id="eEwIPCn7t2N4-stroke-1" offset="100%" stop-color="#758d29"/></linearGradient></defs><text dx="0" dy="0" font-family="&quot;Cooper&quot;" font-size="25.2" font-weight="400" transform="matrix(1 0 0 1.6875-56.239141-174.280907)" fill="#0c4bff"><tspan x="275.179" y="247.302" font-family="&quot;Cooper&quot;" font-size="25.2" font-weight="400" font-style="normal" fill="#0c4bff"><![CDATA[
Byte
]]></tspan><tspan font-family="&quot;Cooper&quot;" font-size="25.2" font-weight="700" font-style="normal" fill="#0d0d0e" stroke="url(#eEwIPCn7t2N4-stroke)" stroke-width="0" stroke-linejoin="round"><![CDATA[
Bazaar
]]></tspan></text><g transform="translate(49.563328 205.515106)"><path d="M123.927,41.301c0,2.9,2.3,5.2,5.2,5.2s5.2-2.3,5.2-5.2-2.4-5.2-5.2-5.2-5.2,2.4-5.2,5.2Zm3.4,0c0-1,.8-1.8,1.8-1.8s1.8.8,1.8,1.8-.8,1.9-1.8,1.9-1.8-.9-1.8-1.9Z" fill="#0167f3"/><path d="M135.927,41.301c0,2.9,2.3,5.2,5.2,5.2s5.2-2.3,5.2-5.2-2.4-5.2-5.2-5.2-5.2,2.4-5.2,5.2Zm3.4,0c0-1,.8-1.8,1.8-1.8s1.8.8,1.8,1.8-.8,1.9-1.8,1.9-1.8-.9-1.8-1.9Z" fill="#0167f3"/><path d="M153.527,14.301c-.4-.6-1.4-1-2.2-1h-32l-2.4-10.4c-.2-1-1.1-1.8-2.1-1.8h-5.9c-1.2,0-2.1.8-2.1,2s.8,2.1,2.1,2.1h4.3l5.9,26.8c.2,1,1.1,1.8,2.1,1.8h25.2c1.4,0,2.6-.8,2.8-2.2l4.7-14.5c.5-1.2.3-2.2-.4-2.8v0Zm-23.9,15.4h-6.5l-1.2-5.8h7.6v5.8h.1Zm0-7.8h-8l-.9-4.5h8.9v4.5Zm8.7,7.8h-6.9v-5.8h6.9v5.8Zm0-7.8h-6.9v-4.5h6.9v4.5Zm7.3,7.8h-5.3v-5.8h7.2l-1.9,5.8Zm2.5-7.8h-7.9v-4.5h9.4l-1.5,4.5Z" fill="#0167f3"/><path d="M116.627,33.601c0,.1,0,.2-.1.2h-5c-.8,0-1.5-.7-1.5-1.5c0-.4.2-.8.4-1c.3-.3.6-.4,1-.4h1.8c.4,0,.8-.2,1-.4s.3-.4.4-.6c.2-1-.6-1.9-1.6-1.9h-10.8c-.8,0-1.5-.7-1.5-1.5c0-.4.2-.8.4-1c.3-.3.6-.4,1-.4h5c.4,0,.8-.2,1-.4s.3-.4.4-.6c.2-1-.6-1.9-1.6-1.9h-1.5c-.8,0-1.5-.7-1.5-1.5c0-.4.2-.8.4-1c.3-.3.6-.4,1-.4h4.9c.4,0,.8-.2,1-.4.3-.3.4-.6.4-1c0-.8-.6-1.4-1.3-1.5h-.1-.2-14.3c-.8,0-1.5-.7-1.5-1.5c0-.4.2-.8.4-1c.3-.3.6-.4,1-.4h9.8c.4,0,.7-.2.9-.4s.3-.4.4-.6c.2-1-.6-1.9-1.6-1.9h-2.6c-.8,0-1.5-.7-1.5-1.5c0-.4.2-.8.4-1c.3-.3.6-.4,1-.4h8.2c.1,0,.1,0,.1.1l5.9,25.8Z" fill="#0167f3"/><path d="M109.027,32.301c0,.4-.2.8-.4,1-.3.3-.6.4-1,.4h-3.1c-.8,0-1.5-.6-1.5-1.5c0-.4.2-.8.4-1c.3-.3.6-.4,1-.4h3.1c.9.1,1.5.8,1.5,1.5v0Z" fill="#0167f3"/><path d="M102.527,20.701c0,.4-.2.8-.4,1-.2.3-.6.4-1,.4h-3c-.7.1-1.4-.6-1.4-1.4c0-.4.2-.8.4-1c.3-.3.6-.4,1-.4h3c.8,0,1.4.7,1.4,1.4Z" fill="#0167f3"/></g></svg>
